<mxfile host="65bd71144e" modified="2022-01-30T05:15:02.178Z" agent="5.0 (Windows NT 10.0; Win64; x64) AppleWebKit/537.36 (KHTML, like Gecko) Code/1.63.2 Chrome/91.0.4472.164 Electron/13.5.2 Safari/537.36" etag="8cT2jerMKFmguWaiFOZM" version="16.5.2" type="embed">
    <diagram id="-14uWgjt2XI42nAD-2lE" name="Page-1">
        <mxGraphModel dx="624" dy="502" grid="1" gridSize="10" guides="1" tooltips="1" connect="1" arrows="1" fold="1" page="1" pageScale="1" pageWidth="827" pageHeight="1169" math="0" shadow="0">
            <root>
                <mxCell id="0"/>
                <mxCell id="1" parent="0"/>
                <mxCell id="2" value="" style="verticalLabelPosition=bottom;verticalAlign=top;html=1;shadow=0;dashed=0;strokeWidth=1;shape=mxgraph.android.phone2;strokeColor=#c0c0c0;" parent="1" vertex="1">
                    <mxGeometry x="40" width="200" height="390" as="geometry"/>
                </mxCell>
                <mxCell id="3" value="" style="verticalLabelPosition=bottom;verticalAlign=top;html=1;shadow=0;dashed=0;strokeWidth=1;shape=mxgraph.android.phone2;strokeColor=#c0c0c0;" parent="1" vertex="1">
                    <mxGeometry x="310" width="200" height="390" as="geometry"/>
                </mxCell>
                <mxCell id="5" value="どら" style="text;html=1;strokeColor=none;fillColor=none;align=left;verticalAlign=middle;whiteSpace=wrap;rounded=0;" parent="1" vertex="1">
                    <mxGeometry x="110" y="125" width="60" height="30" as="geometry"/>
                </mxCell>
                <mxCell id="7" value="はち" style="text;html=1;strokeColor=none;fillColor=none;align=left;verticalAlign=middle;whiteSpace=wrap;rounded=0;" parent="1" vertex="1">
                    <mxGeometry x="110" y="170" width="60" height="30" as="geometry"/>
                </mxCell>
                <mxCell id="10" value="猫一覧" style="text;html=1;strokeColor=none;fillColor=none;align=center;verticalAlign=middle;whiteSpace=wrap;rounded=0;" parent="1" vertex="1">
                    <mxGeometry x="50" y="40" width="60" height="30" as="geometry"/>
                </mxCell>
                <mxCell id="12" value="どら" style="text;html=1;strokeColor=none;fillColor=none;align=left;verticalAlign=middle;whiteSpace=wrap;rounded=0;" parent="1" vertex="1">
                    <mxGeometry x="408.6" y="84" width="60" height="30" as="geometry"/>
                </mxCell>
                <mxCell id="13" value="性別" style="text;html=1;strokeColor=none;fillColor=none;align=left;verticalAlign=middle;whiteSpace=wrap;rounded=0;" parent="1" vertex="1">
                    <mxGeometry x="330" y="140" width="40" height="30" as="geometry"/>
                </mxCell>
                <mxCell id="14" value="女の子" style="text;html=1;strokeColor=none;fillColor=none;align=left;verticalAlign=middle;whiteSpace=wrap;rounded=0;" parent="1" vertex="1">
                    <mxGeometry x="380" y="140" width="70" height="30" as="geometry"/>
                </mxCell>
                <mxCell id="15" value="誕生日" style="text;html=1;strokeColor=none;fillColor=none;align=left;verticalAlign=middle;whiteSpace=wrap;rounded=0;" parent="1" vertex="1">
                    <mxGeometry x="330" y="180" width="40" height="30" as="geometry"/>
                </mxCell>
                <mxCell id="16" value="2010/5/23" style="text;html=1;strokeColor=none;fillColor=none;align=left;verticalAlign=middle;whiteSpace=wrap;rounded=0;" parent="1" vertex="1">
                    <mxGeometry x="380" y="180" width="70" height="30" as="geometry"/>
                </mxCell>
                <mxCell id="17" value="メモ" style="text;html=1;strokeColor=none;fillColor=none;align=left;verticalAlign=middle;whiteSpace=wrap;rounded=0;" parent="1" vertex="1">
                    <mxGeometry x="330" y="220" width="40" height="30" as="geometry"/>
                </mxCell>
                <mxCell id="18" value="甘ったれ" style="text;html=1;strokeColor=none;fillColor=none;align=left;verticalAlign=middle;whiteSpace=wrap;rounded=0;" parent="1" vertex="1">
                    <mxGeometry x="380" y="220" width="110" height="30" as="geometry"/>
                </mxCell>
                <mxCell id="19" value="登録" style="rounded=1;html=1;shadow=0;dashed=0;whiteSpace=wrap;fontSize=10;fillColor=#E6E6E6;align=center;strokeColor=#E6E6E6;fontColor=#333333;" parent="1" vertex="1">
                    <mxGeometry x="345.85" y="290" width="52.75" height="16.88" as="geometry"/>
                </mxCell>
                <mxCell id="20" value="削除" style="rounded=1;html=1;shadow=0;dashed=0;whiteSpace=wrap;fontSize=10;fillColor=#E6E6E6;align=center;strokeColor=#E6E6E6;fontColor=#333333;" parent="1" vertex="1">
                    <mxGeometry x="430" y="290" width="52.75" height="16.88" as="geometry"/>
                </mxCell>
                <mxCell id="21" value="" style="shape=flexArrow;endArrow=classic;html=1;endWidth=28;endSize=9.27;width=35;" parent="1" edge="1">
                    <mxGeometry width="50" height="50" relative="1" as="geometry">
                        <mxPoint x="250" y="199" as="sourcePoint"/>
                        <mxPoint x="300" y="199" as="targetPoint"/>
                    </mxGeometry>
                </mxCell>
                <mxCell id="22" value="猫詳細" style="text;html=1;strokeColor=none;fillColor=none;align=center;verticalAlign=middle;whiteSpace=wrap;rounded=0;" parent="1" vertex="1">
                    <mxGeometry x="320" y="40" width="60" height="30" as="geometry"/>
                </mxCell>
                <mxCell id="23" value="" style="shape=image;verticalLabelPosition=bottom;labelBackgroundColor=default;verticalAlign=top;aspect=fixed;imageAspect=0;image=data:image/png,iVBORw0KGgoAAAANSUhEUgAAADAAAAAwCAQAAAD9CzEMAAABjUlEQVRYw+2XQarCMBCGP8WNUBF0Kd2JVyi46in0DvYC3XWnJ2hP0Z0uxGPoDRRU0APoyrdJ8ipt2mpJ4MGbLP8/M5NJ/mQC//YXrIVHSMqeMy9enNmTEuLRau58xIoTL804sWL0vfMBMQ+tczkexAy+cT/jXulcjjuzz5x3SN4cPNkR4DPGwWGMT8CO5xsnoVPXfZd1ZuKVgF4hr0fANcNc062X/SZT3winlO0QZfZpU2cVSSb3aa0VTzPrSKrIc0U94NbeM5eDmjcvIw65qezdj46Fq1ZxY6inxar2xcWRWRYXSu5FrFetpEQaRlkAiFR6GnUvBeGiPTnlARwuAl8WwW2OAl5oS1geABYCP9LOg55Sbf/rAH2lbi8PhgLalpyVqgCwFYwwD6UCChoFCAQjzUNSKn6jAL6Sac6kxCYFDqvGr02U3HImNdBrFKCntGA/gPESGd9k48fUuNCMXxXGLzvj17WFB8f4k2nh0TfetlhovCy0jsabXwvtu4UPiJUvlIVPoJVv7L+Ztx8ZrlVzxZ+PEwAAAABJRU5ErkJggg==;" vertex="1" parent="1">
                    <mxGeometry x="180" y="300" width="48" height="48" as="geometry"/>
                </mxCell>
                <mxCell id="25" value="" style="shape=image;verticalLabelPosition=bottom;labelBackgroundColor=default;verticalAlign=top;aspect=fixed;imageAspect=0;image=data:image/png,iVBORw0KGgoAAAANSUhEUgAAAGQAAABlCAYAAAC7vkbxAAAAAXNSR0IArs4c6QAAAARnQU1BAACxjwv8YQUAAAAJcEhZcwAAEnQAABJ0Ad5mH3gAAAgYSURBVHhe7Zy9jiNFEMe9KwF3EkJCJHcR8BREBEgkIALEE0DGEZEhAiIC4AWADHgBREBAToDuAYghgwQJcei++Dj8N67Zmprq7qru6pn23f4ka23PTE9V/ap77F17zx7s2V0yDCcn5Ozs7Hgvz6n22bBCrIX3MrqoYYT0ElBiNEGbCrFIiApvzXO1sLqQUmHWCmeUOCSrCckVYKvkiZFiW0WIlvDWElJsHWs3IamuG1WEZKv4uwg5pRlRYu1czo8/w3iYZAAt9tTsiSB0hshAT1mExhr5hQgpzYpUR52isFKurTQLSXVNSoLG6GK0HFN5t9IkxCPjwc2njvf221/443jvgqiEIvE0FYjIoVqIVQYXIZFiRpLilUG05lAlhAcrD59ty8gguJRRhJSaSmukXE08uF/2RsoAs6VMFGIEtDwWgvZx81q05OESYj2RVQbh3b8XyI/nmItLk8KplWIWIk+Qmx0tRI3TiqVJ5D4RNal6p95LBjGKFAslKV5MQniBSie0dJZG7XFRRDQBjcFr5B23KMQjo8R3P/x9eIWC2/Ov/3l8djyim8MjpWrJquHzr+/vXnn39vHRbvfzL//urr64fINIRHRsBLyJcPvy27+OWy7QBKJ5axo4K8QyO2b7JDoLSd345O7hPvbB7crju93d+4enJqI700pKPuLmTQTe+vDO8Z5OaixrgyXfGFpkAIsQdBaQ2/E8xNz5/uJ52hfUdFgNqRy0uLWYQS5uay1B9yXr+qu3Dj81WTRLtGVgazA7gBa3nNmRqEI8RnNAxq+/pY+nLkstA4ij9eaBF18uVSU0cQSvYSmmhRBvEjlIRi7Yj9554vDz46/uzaZ9FFyONTeaHW+/sZ/CAoq3hVwci2sI39kyO2b7s8LzC2JOiEeCHCe1xntAjpQDjaONy8F2bdt0XKJultp2u4YUX43sg88VDwnLmwXvMblu3YKZEO/syJFarnIiPIW0wse0jJu7mLfCa5pqhC4zBG8CAV+DUyI8xYogdz7EZ72Y93plOF1DpDHrDJnNqmOSVHg8TkmIgJ8nAhlratzUeafnM7Ur1VmdIVYZJbQEo4q3Bohf5tBKqbYLIVEyJKcgghpGxmoR4xGXnUH7jYetNJW8QuSSJQPziMBvgPFLx7X44oOruzdfe+z4aIlWZJ4jz43va6nhrG5s/8MMkeuaBz7YLKh9sB4ZYE0Z4OaP/xzv6Wg5aJIiOcyQlC0rUqhXRC1ap/ZCE8HPO8VirF92hhCnJGNtovNK1brL+5CHlTWarUnIozI7ONoy1Qqv47ksqpXZGrgPchQZeKWGQmm3qHfXKSk1S74EVZ1GqbogdRLR4yUwfpXz2XtXjo/a4TKAV8isjsdjhxUik22lR5xdhYwkwwoVZJg4nEIA1ZOOdV3UuYxLlkTUxzVDLCdcs1tHmSGgdpbIGWIWosl4VJcsOm8Kj5QQISN0JP9Ey0gzBLQIOdl36rmPF21BVFOYhGjL1dbg4zh4XzHC7JC01Mu0ZI22XEWTuiZ4c61ZtuSS5RbC0T7jqlG8CG4kuRQXsMYmP5i9ipCWjrGwlhiKaypCouGwHdu0uEq/2mkWAlKD1AjhSacS1ugtxSqDoPitcfEmTNWT4OemfYsXdU8xCZl0Cb4fTygab1wE9sexPWMjwl/2tiTdk9q4iN7xEeeRJ4pKukcnrnV9qoHXa7g3hj2lnAKhQkbuQoD4aq6JazITEhEsJV07Fh3XU25NbDgmMqZUDF2WLArcmjj2oxuO7SlDxla63vG41sD0UdJpW0VQlmuBdVzPdaU0pnUsb840rkU0kPupX0dY7NQgJIqai/wW8VqE5GrtWrJqirIVW8poYRLCTXGDo7Dl7IwkNzuAaYbMZG04SyxSsM/W8nLLVYnpGgLkzMCm3rOlpnippiiNRb8iL30vpJbS9UOrr2QmBKSm1Oz5oA7khfWOKaVYjsc/J3j/03uH+6W/5USsBLLgqdpyqoSAKClASz5yfA6X8tz1891P3zx5uA9qJBOz5trXjeqVqqEo+8RCCLBIsQRb6jI+hvyLGyidA588+f3WA9NfLTm5uGoaQcrQWDR0tBDAg9eSLCWXO4a25cbw7CO59szZ4ZMrpRgt8HNYhKT2AaoQYJVCtCQ2S8gxjlWItr10LI+phlTNcjJAUghIFZ/TIoLQkreMi+NqvmKgLY8apRhk3FRKqhsee2QAsxC522xbo5RSt6bAcZ5jZAFbvi+SkgFSjWwRknxjiEEtJwEyOC94CQrof6R4eOnGbdM3ozTpPWQAPNaes5CdIUCK4LsvtjXMFJ6kfDmq8fTL/7/CIlBc/s9uUvDlqjZeHmuqfLm65SgKAWtJ4e8RCJKDQuI/m/LPQkHAs9fOFsdwuFwuo3a56ikDmISAtaQQclmQpM5ROg7UxCfH7SEDdBECIqSARSGc48rja2aGJnlzIaB0ssX2IClbYp0ZgOfvFUG4hBC5E0sp4FTFrC0DNAsBD5sUzxIFSvXwUCUEqEU/cTGtIkCLDFAtBFgD0vYDo8jRRIC1ZYAmIYQMLjXkSGJSEkCpJNZ8awgRAjxBpsQQvQS1SCB6ygBhQghvwCU5HIuoXNE1RhFBhAsBWpEjxbTiSbkmlxa6CAG1ifQU4011bRmgmxCQKm7tKa2yWlOKjttDVyHElgl6GCHOVYQQuQ7fSs5oMa0qhMgVgegV1pbntrCJEI6lQBxruL3G7c3mQjjeIrYyUOoTQwnRiJI0eJoTwwt51Ojypc9L6rkUMhS73X89gj6ZfjPmSgAAAABJRU5ErkJggg==;" vertex="1" parent="1">
                    <mxGeometry x="60.5" y="120" width="39.6" height="40" as="geometry"/>
                </mxCell>
                <mxCell id="26" value="" style="shape=image;verticalLabelPosition=bottom;labelBackgroundColor=default;verticalAlign=top;aspect=fixed;imageAspect=0;image=data:image/png,iVBORw0KGgoAAAANSUhEUgAAAGQAAABlCAYAAAC7vkbxAAAAAXNSR0IArs4c6QAAAARnQU1BAACxjwv8YQUAAAAJcEhZcwAAEnQAABJ0Ad5mH3gAAAgYSURBVHhe7Zy9jiNFEMe9KwF3EkJCJHcR8BREBEgkIALEE0DGEZEhAiIC4AWADHgBREBAToDuAYghgwQJcei++Dj8N67Zmprq7qru6pn23f4ka23PTE9V/ap77F17zx7s2V0yDCcn5Ozs7Hgvz6n22bBCrIX3MrqoYYT0ElBiNEGbCrFIiApvzXO1sLqQUmHWCmeUOCSrCckVYKvkiZFiW0WIlvDWElJsHWs3IamuG1WEZKv4uwg5pRlRYu1czo8/w3iYZAAt9tTsiSB0hshAT1mExhr5hQgpzYpUR52isFKurTQLSXVNSoLG6GK0HFN5t9IkxCPjwc2njvf221/443jvgqiEIvE0FYjIoVqIVQYXIZFiRpLilUG05lAlhAcrD59ty8gguJRRhJSaSmukXE08uF/2RsoAs6VMFGIEtDwWgvZx81q05OESYj2RVQbh3b8XyI/nmItLk8KplWIWIk+Qmx0tRI3TiqVJ5D4RNal6p95LBjGKFAslKV5MQniBSie0dJZG7XFRRDQBjcFr5B23KMQjo8R3P/x9eIWC2/Ov/3l8djyim8MjpWrJquHzr+/vXnn39vHRbvfzL//urr64fINIRHRsBLyJcPvy27+OWy7QBKJ5axo4K8QyO2b7JDoLSd345O7hPvbB7crju93d+4enJqI700pKPuLmTQTe+vDO8Z5OaixrgyXfGFpkAIsQdBaQ2/E8xNz5/uJ52hfUdFgNqRy0uLWYQS5uay1B9yXr+qu3Dj81WTRLtGVgazA7gBa3nNmRqEI8RnNAxq+/pY+nLkstA4ij9eaBF18uVSU0cQSvYSmmhRBvEjlIRi7Yj9554vDz46/uzaZ9FFyONTeaHW+/sZ/CAoq3hVwci2sI39kyO2b7s8LzC2JOiEeCHCe1xntAjpQDjaONy8F2bdt0XKJultp2u4YUX43sg88VDwnLmwXvMblu3YKZEO/syJFarnIiPIW0wse0jJu7mLfCa5pqhC4zBG8CAV+DUyI8xYogdz7EZ72Y93plOF1DpDHrDJnNqmOSVHg8TkmIgJ8nAhlratzUeafnM7Ur1VmdIVYZJbQEo4q3Bohf5tBKqbYLIVEyJKcgghpGxmoR4xGXnUH7jYetNJW8QuSSJQPziMBvgPFLx7X44oOruzdfe+z4aIlWZJ4jz43va6nhrG5s/8MMkeuaBz7YLKh9sB4ZYE0Z4OaP/xzv6Wg5aJIiOcyQlC0rUqhXRC1ap/ZCE8HPO8VirF92hhCnJGNtovNK1brL+5CHlTWarUnIozI7ONoy1Qqv47ksqpXZGrgPchQZeKWGQmm3qHfXKSk1S74EVZ1GqbogdRLR4yUwfpXz2XtXjo/a4TKAV8isjsdjhxUik22lR5xdhYwkwwoVZJg4nEIA1ZOOdV3UuYxLlkTUxzVDLCdcs1tHmSGgdpbIGWIWosl4VJcsOm8Kj5QQISN0JP9Ey0gzBLQIOdl36rmPF21BVFOYhGjL1dbg4zh4XzHC7JC01Mu0ZI22XEWTuiZ4c61ZtuSS5RbC0T7jqlG8CG4kuRQXsMYmP5i9ipCWjrGwlhiKaypCouGwHdu0uEq/2mkWAlKD1AjhSacS1ugtxSqDoPitcfEmTNWT4OemfYsXdU8xCZl0Cb4fTygab1wE9sexPWMjwl/2tiTdk9q4iN7xEeeRJ4pKukcnrnV9qoHXa7g3hj2lnAKhQkbuQoD4aq6JazITEhEsJV07Fh3XU25NbDgmMqZUDF2WLArcmjj2oxuO7SlDxla63vG41sD0UdJpW0VQlmuBdVzPdaU0pnUsb840rkU0kPupX0dY7NQgJIqai/wW8VqE5GrtWrJqirIVW8poYRLCTXGDo7Dl7IwkNzuAaYbMZG04SyxSsM/W8nLLVYnpGgLkzMCm3rOlpnippiiNRb8iL30vpJbS9UOrr2QmBKSm1Oz5oA7khfWOKaVYjsc/J3j/03uH+6W/5USsBLLgqdpyqoSAKClASz5yfA6X8tz1891P3zx5uA9qJBOz5trXjeqVqqEo+8RCCLBIsQRb6jI+hvyLGyidA588+f3WA9NfLTm5uGoaQcrQWDR0tBDAg9eSLCWXO4a25cbw7CO59szZ4ZMrpRgt8HNYhKT2AaoQYJVCtCQ2S8gxjlWItr10LI+phlTNcjJAUghIFZ/TIoLQkreMi+NqvmKgLY8apRhk3FRKqhsee2QAsxC522xbo5RSt6bAcZ5jZAFbvi+SkgFSjWwRknxjiEEtJwEyOC94CQrof6R4eOnGbdM3ozTpPWQAPNaes5CdIUCK4LsvtjXMFJ6kfDmq8fTL/7/CIlBc/s9uUvDlqjZeHmuqfLm65SgKAWtJ4e8RCJKDQuI/m/LPQkHAs9fOFsdwuFwuo3a56ikDmISAtaQQclmQpM5ROg7UxCfH7SEDdBECIqSARSGc48rja2aGJnlzIaB0ssX2IClbYp0ZgOfvFUG4hBC5E0sp4FTFrC0DNAsBD5sUzxIFSvXwUCUEqEU/cTGtIkCLDFAtBFgD0vYDo8jRRIC1ZYAmIYQMLjXkSGJSEkCpJNZ8awgRAjxBpsQQvQS1SCB6ygBhQghvwCU5HIuoXNE1RhFBhAsBWpEjxbTiSbkmlxa6CAG1ifQU4011bRmgmxCQKm7tKa2yWlOKjttDVyHElgl6GCHOVYQQuQ7fSs5oMa0qhMgVgegV1pbntrCJEI6lQBxruL3G7c3mQjjeIrYyUOoTQwnRiJI0eJoTwwt51Ojypc9L6rkUMhS73X89gj6ZfjPmSgAAAABJRU5ErkJggg==;" vertex="1" parent="1">
                    <mxGeometry x="359" y="80" width="39.6" height="40" as="geometry"/>
                </mxCell>
                <mxCell id="27" value="" style="shape=image;verticalLabelPosition=bottom;labelBackgroundColor=default;verticalAlign=top;aspect=fixed;imageAspect=0;image=data:image/png,iVBORw0KGgoAAAANSUhEUgAAAGQAAABlCAYAAAC7vkbxAAAAAXNSR0IArs4c6QAAAARnQU1BAACxjwv8YQUAAAAJcEhZcwAAEnQAABJ0Ad5mH3gAAAYwSURBVHhe7ZxLjiRFDIarG4RYISFYMKzgCpyA+18CVsAGCYkFDwmG9lS55Hb5GeGIjGzik0pT3Rlh//afzqya0eTT+xcum2U4nSFPT0+3dzZnPc+WNSTa+CyrG7WMIaMM8FjNoEMNiZhQJW9mrh6mG+I1ZpacVXRwphliNeCo4pGVtE0xRCr4aBM0jtY6zBDtrFvVCM5R+ocYcqaJ8Jhdy/PtzzLekhmApF2bngpKJ4QLpaHpsbMaZNVXRYkh3lR4x8/E6Fq6DbHOGkk85wzG0DpQr1V3D12GeKIihgBVxVRj6UfNklk9NN/Uq8xYFU8/Hqd1V9TcZAhNDIJ6zagopJKsnkpT0oZwMzitglYzJYLWi55aUoacsWkZoL6qGlvjhA3hCSqnA6lqxkyo5t5LN9B0D5HMqOKMplB6exMyxDoLkLM3skc/30t7lI3rGhIxo4Vv3umpz24uJ1OP+8UwYkhrAz/95HL58+/bD4xK8yNUnASSZowbrceckIgZWSAOvCwzgIoGRZmRK5pDNWSUGcgff13fgzGrgydRSx/onogpoZt6D199cRUhFeNNyQpkTKiYNPEekp0OTQiY8cuv1/1anIoiLHr0A3y/pzdSp6XpwRCe0NqMtIoEvL3VSFosDXx9RG8kh9YT85JlNRKZ3dBeQC99WUj1R3oiEd03/B6iEWnIDFbQQHllCBXXeiZweJxVjPCoqp9CY2o9mDYhZzHiaO6GtDQrsuesRszQLOUQJ2TEuJ6RESeT19sHQ7YZj1QbY/V42j3kLVA9LQCP+cGQEYneKqN7tSdkMV4Zsu8f89B6vSdkMbYhC0DvS8+tN6n9QWAMTROyzRjHvmQtxt2Q6CesPR11SD1PTcg2Yzz7kjWAnhM3bMiejjnsCVmMUxuy8l/1tF5RQobsy9U8TjshOB0rT0kL+x6yGFMMsc7iijO8NQbsG60ty92QUfcJryjIW1F4Ngaut+qu0qYh5XYnpMeoSNFIpnBtbTRGtsnZ9T0Mu2S1FBHZ463pPa7Rui/L84hEPTEr9ECMWQ2sgGo91aesbJPPZApyGkNam8v39dwTZ/DKkCqxEIfGyjRT0lB9prfUWdUbRIs3dEKiRcA6fHEqzJBiYC4vvqZrFPf/0mYJnCmIwrVkdBxdh5SfovX7YUKOar5HVpe0Hor3GjUDq5Zlb+q9jbP2r2CKxt0QKvLoKZEaVt3Eo0yhvZU0hCZklnjIY+WK6PBiUDJrM/TEVA1BJ+HPkRODTYkWYa2LxJBqyeTvIdJH88EB9JD2ewmtaE4mJofniO7HffBYD3zeioRUQxauKVJv002dBob3/AVAQvqSoMekGBY0NsbIAM9Y+fbrj24/XeH5W+ICuC9SByf1rBMtgSbcEyTt03JLvPvy+fLb7+/NM13C0uXl5PBY0V6o614OPBzRmmIFlYrUkiLWHjxmxcis4eCDcTyNEWgOLV5kDSAaAmgBtAKtJB5RsRzcZ+2BNdJxb69WZxQaN1OfaggQEeUliCDlicT1mmpRURuPgeupLromVNPLInWVFSybyIIWkCG7j2oGenRbsfgxJJLP/JQVSQJYxyL0PObv++8+vr2zQY1QU48RgGUGIOWI5jQnBLCSe8Iy0FjwCNkffvrn9pPM559dP2EhmdzUnBaoVi1Ga2/c7yE8kCWGi8gAsTDejz//+yEWvLTvCmAG3YO/5y9pP8C1R8H9gBaDrgEyudwJQawkPQI0eEyOlsPbB7Toi9bY24umb+oekaZ4QCFSMdrvETyurbP2alTUEyU8IYDnfu/ZsSKZmuja1tpThiBWYl4A0CruaGabAXRfsiKiJZNWBvS2mtFL04QAkggeKrJmJbJ6R9TXbAgQFSStA3rFV9Gib4QZQJchCBenhVzJGE0L4OmJ1ttCiSFARqTVDKCyQEqPCchIM4AyQ5CsYM8cSkRqJh4QLX+0EUi5IYDUFC9NtpE9ZEpuqaWHIYYArYWMNCZb6mwzgGGGAFpzW1NGzeotqVp3hqGGIEcWmGEFnVMMQawz/ChzVtM01RDEagIyStaRuSMcYggl0iBKVO6ouKM53BBKtom9LFT6naUMkagyafEy7yxvyP+NIf+Eu2lnG7IUl8t/tZJgd7k5A6kAAAAASUVORK5CYII=;" vertex="1" parent="1">
                    <mxGeometry x="60.5" y="165" width="39.6" height="40" as="geometry"/>
                </mxCell>
            </root>
        </mxGraphModel>
    </diagram>
</mxfile>